<mxfile host="Electron" modified="2023-11-16T11:22:31.910Z" agent="Mozilla/5.0 (Windows NT 10.0; Win64; x64) AppleWebKit/537.36 (KHTML, like Gecko) draw.io/21.2.8 Chrome/112.0.5615.165 Electron/24.2.0 Safari/537.36" etag="8ue3C2KElXws-LXz9RSh" version="21.2.8" type="device">
  <diagram name="Page-1" id="J4eO9nVUZauvVbExk5FZ">
    <mxGraphModel dx="1351" dy="489" grid="1" gridSize="10" guides="1" tooltips="1" connect="1" arrows="1" fold="1" page="1" pageScale="1" pageWidth="827" pageHeight="1169" math="0" shadow="0">
      <root>
        <mxCell id="0" />
        <mxCell id="1" parent="0" />
        <mxCell id="caIsfQz5mnpSXyzE1Mm8-15" style="edgeStyle=orthogonalEdgeStyle;rounded=0;orthogonalLoop=1;jettySize=auto;html=1;exitX=1;exitY=0.5;exitDx=0;exitDy=0;dashed=1;" edge="1" parent="1" source="caIsfQz5mnpSXyzE1Mm8-1" target="caIsfQz5mnpSXyzE1Mm8-14">
          <mxGeometry relative="1" as="geometry" />
        </mxCell>
        <mxCell id="caIsfQz5mnpSXyzE1Mm8-1" value="&lt;b&gt;&lt;font style=&quot;font-size: 16px;&quot;&gt;Source&lt;/font&gt;&lt;/b&gt;" style="rounded=0;whiteSpace=wrap;html=1;fillColor=#fff2cc;strokeColor=#121212;" vertex="1" parent="1">
          <mxGeometry x="60" y="320" width="150" height="50" as="geometry" />
        </mxCell>
        <mxCell id="caIsfQz5mnpSXyzE1Mm8-3" value="&lt;b&gt;&lt;font style=&quot;font-size: 16px;&quot;&gt;FaltMap&lt;/font&gt;&lt;/b&gt;" style="rounded=0;whiteSpace=wrap;html=1;fillColor=#fff2cc;strokeColor=#121212;" vertex="1" parent="1">
          <mxGeometry x="60" y="230" width="150" height="50" as="geometry" />
        </mxCell>
        <mxCell id="caIsfQz5mnpSXyzE1Mm8-4" value="&lt;b&gt;&lt;font style=&quot;font-size: 16px;&quot;&gt;Filter&lt;/font&gt;&lt;/b&gt;" style="rounded=0;whiteSpace=wrap;html=1;fillColor=#fff2cc;strokeColor=#121212;" vertex="1" parent="1">
          <mxGeometry x="60" y="180" width="150" height="50" as="geometry" />
        </mxCell>
        <mxCell id="caIsfQz5mnpSXyzE1Mm8-9" style="edgeStyle=orthogonalEdgeStyle;rounded=0;orthogonalLoop=1;jettySize=auto;html=1;exitX=1;exitY=0.5;exitDx=0;exitDy=0;dashed=1;" edge="1" parent="1" source="caIsfQz5mnpSXyzE1Mm8-5" target="caIsfQz5mnpSXyzE1Mm8-8">
          <mxGeometry relative="1" as="geometry" />
        </mxCell>
        <mxCell id="caIsfQz5mnpSXyzE1Mm8-5" value="&lt;b&gt;&lt;font style=&quot;font-size: 16px;&quot;&gt;Sink&lt;/font&gt;&lt;/b&gt;" style="rounded=0;whiteSpace=wrap;html=1;fillColor=#fff2cc;strokeColor=#121212;" vertex="1" parent="1">
          <mxGeometry x="60" y="130" width="150" height="50" as="geometry" />
        </mxCell>
        <mxCell id="caIsfQz5mnpSXyzE1Mm8-6" value="" style="endArrow=none;html=1;rounded=0;exitX=0;exitY=0;exitDx=0;exitDy=0;" edge="1" parent="1" source="caIsfQz5mnpSXyzE1Mm8-5">
          <mxGeometry width="50" height="50" relative="1" as="geometry">
            <mxPoint x="180" y="280" as="sourcePoint" />
            <mxPoint x="60" y="70" as="targetPoint" />
          </mxGeometry>
        </mxCell>
        <mxCell id="caIsfQz5mnpSXyzE1Mm8-7" value="" style="endArrow=none;html=1;rounded=0;exitX=0;exitY=0;exitDx=0;exitDy=0;" edge="1" parent="1">
          <mxGeometry width="50" height="50" relative="1" as="geometry">
            <mxPoint x="210" y="130" as="sourcePoint" />
            <mxPoint x="210" y="70" as="targetPoint" />
          </mxGeometry>
        </mxCell>
        <mxCell id="caIsfQz5mnpSXyzE1Mm8-8" value="&lt;b&gt;&lt;font style=&quot;font-size: 14px;&quot;&gt;SinkTransformation&lt;/font&gt;&lt;/b&gt;" style="text;html=1;align=center;verticalAlign=middle;resizable=0;points=[];autosize=1;strokeColor=none;fillColor=none;" vertex="1" parent="1">
          <mxGeometry x="300" y="140" width="150" height="30" as="geometry" />
        </mxCell>
        <mxCell id="caIsfQz5mnpSXyzE1Mm8-10" value="&lt;b&gt;&lt;font style=&quot;font-size: 14px;&quot;&gt;OneInputTransformation&lt;/font&gt;&lt;/b&gt;" style="text;html=1;align=center;verticalAlign=middle;resizable=0;points=[];autosize=1;strokeColor=none;fillColor=none;" vertex="1" parent="1">
          <mxGeometry x="280" y="217" width="190" height="30" as="geometry" />
        </mxCell>
        <mxCell id="caIsfQz5mnpSXyzE1Mm8-12" value="" style="endArrow=classic;html=1;rounded=0;exitX=1;exitY=0.5;exitDx=0;exitDy=0;entryX=-0.021;entryY=0.527;entryDx=0;entryDy=0;entryPerimeter=0;dashed=1;" edge="1" parent="1" source="caIsfQz5mnpSXyzE1Mm8-4" target="caIsfQz5mnpSXyzE1Mm8-10">
          <mxGeometry width="50" height="50" relative="1" as="geometry">
            <mxPoint x="170" y="280" as="sourcePoint" />
            <mxPoint x="220" y="230" as="targetPoint" />
          </mxGeometry>
        </mxCell>
        <mxCell id="caIsfQz5mnpSXyzE1Mm8-13" value="" style="endArrow=classic;html=1;rounded=0;exitX=1;exitY=0.5;exitDx=0;exitDy=0;entryX=-0.021;entryY=0.553;entryDx=0;entryDy=0;entryPerimeter=0;dashed=1;" edge="1" parent="1" source="caIsfQz5mnpSXyzE1Mm8-3" target="caIsfQz5mnpSXyzE1Mm8-10">
          <mxGeometry width="50" height="50" relative="1" as="geometry">
            <mxPoint x="170" y="280" as="sourcePoint" />
            <mxPoint x="220" y="230" as="targetPoint" />
          </mxGeometry>
        </mxCell>
        <mxCell id="caIsfQz5mnpSXyzE1Mm8-14" value="&lt;b&gt;&lt;font style=&quot;font-size: 14px;&quot;&gt;SourceTransformation&lt;/font&gt;&lt;/b&gt;" style="text;html=1;align=center;verticalAlign=middle;resizable=0;points=[];autosize=1;strokeColor=none;fillColor=none;" vertex="1" parent="1">
          <mxGeometry x="290" y="330" width="170" height="30" as="geometry" />
        </mxCell>
        <mxCell id="caIsfQz5mnpSXyzE1Mm8-17" value="&lt;font size=&quot;1&quot; style=&quot;&quot;&gt;&lt;b style=&quot;font-size: 30px;&quot;&gt;*&lt;/b&gt;&lt;/font&gt;" style="text;html=1;align=center;verticalAlign=middle;resizable=0;points=[];autosize=1;strokeColor=none;fillColor=none;" vertex="1" parent="1">
          <mxGeometry x="63" y="136" width="40" height="50" as="geometry" />
        </mxCell>
        <mxCell id="caIsfQz5mnpSXyzE1Mm8-18" value="&lt;font size=&quot;1&quot; style=&quot;&quot;&gt;&lt;b style=&quot;font-size: 30px;&quot;&gt;*&lt;/b&gt;&lt;/font&gt;" style="text;html=1;align=center;verticalAlign=middle;resizable=0;points=[];autosize=1;strokeColor=none;fillColor=none;" vertex="1" parent="1">
          <mxGeometry x="63" y="188" width="40" height="50" as="geometry" />
        </mxCell>
        <mxCell id="caIsfQz5mnpSXyzE1Mm8-19" value="&lt;font size=&quot;1&quot; style=&quot;&quot;&gt;&lt;b style=&quot;font-size: 30px;&quot;&gt;*&lt;/b&gt;&lt;/font&gt;" style="text;html=1;align=center;verticalAlign=middle;resizable=0;points=[];autosize=1;strokeColor=none;fillColor=none;" vertex="1" parent="1">
          <mxGeometry x="62" y="237" width="40" height="50" as="geometry" />
        </mxCell>
        <mxCell id="caIsfQz5mnpSXyzE1Mm8-20" value="" style="curved=1;endArrow=classic;html=1;rounded=0;entryX=0;entryY=0.5;entryDx=0;entryDy=0;exitX=0.95;exitY=0.348;exitDx=0;exitDy=0;exitPerimeter=0;" edge="1" parent="1" target="caIsfQz5mnpSXyzE1Mm8-1">
          <mxGeometry width="50" height="50" relative="1" as="geometry">
            <mxPoint x="72" y="256.4" as="sourcePoint" />
            <mxPoint x="53" y="345" as="targetPoint" />
            <Array as="points">
              <mxPoint x="20" y="270" />
            </Array>
          </mxGeometry>
        </mxCell>
        <mxCell id="caIsfQz5mnpSXyzE1Mm8-29" style="edgeStyle=orthogonalEdgeStyle;rounded=0;orthogonalLoop=1;jettySize=auto;html=1;exitX=0.5;exitY=0;exitDx=0;exitDy=0;entryX=0.516;entryY=1;entryDx=0;entryDy=0;entryPerimeter=0;dashed=1;" edge="1" parent="1" source="caIsfQz5mnpSXyzE1Mm8-21" target="caIsfQz5mnpSXyzE1Mm8-28">
          <mxGeometry relative="1" as="geometry" />
        </mxCell>
        <mxCell id="caIsfQz5mnpSXyzE1Mm8-21" value="&lt;b&gt;&lt;font style=&quot;font-size: 16px;&quot;&gt;Shuffle&lt;/font&gt;&lt;/b&gt;" style="rounded=0;whiteSpace=wrap;html=1;fillColor=#fff2cc;strokeColor=#121212;" vertex="1" parent="1">
          <mxGeometry x="-190" y="120" width="150" height="50" as="geometry" />
        </mxCell>
        <mxCell id="caIsfQz5mnpSXyzE1Mm8-22" value="&lt;font size=&quot;1&quot; style=&quot;&quot;&gt;&lt;b style=&quot;font-size: 30px;&quot;&gt;*&lt;/b&gt;&lt;/font&gt;" style="text;html=1;align=center;verticalAlign=middle;resizable=0;points=[];autosize=1;strokeColor=none;fillColor=none;" vertex="1" parent="1">
          <mxGeometry x="-187" y="128" width="40" height="50" as="geometry" />
        </mxCell>
        <mxCell id="caIsfQz5mnpSXyzE1Mm8-24" value="" style="curved=1;endArrow=classic;html=1;rounded=0;" edge="1" parent="1">
          <mxGeometry width="50" height="50" relative="1" as="geometry">
            <mxPoint x="72" y="157" as="sourcePoint" />
            <mxPoint x="75" y="207" as="targetPoint" />
            <Array as="points">
              <mxPoint x="5" y="177" />
            </Array>
          </mxGeometry>
        </mxCell>
        <mxCell id="caIsfQz5mnpSXyzE1Mm8-25" value="" style="curved=1;endArrow=classic;html=1;rounded=0;entryX=0.5;entryY=1;entryDx=0;entryDy=0;" edge="1" parent="1" target="caIsfQz5mnpSXyzE1Mm8-21">
          <mxGeometry width="50" height="50" relative="1" as="geometry">
            <mxPoint x="79" y="213" as="sourcePoint" />
            <mxPoint x="-121" y="165" as="targetPoint" />
            <Array as="points">
              <mxPoint x="-81" y="205" />
            </Array>
          </mxGeometry>
        </mxCell>
        <mxCell id="caIsfQz5mnpSXyzE1Mm8-26" value="" style="curved=1;endArrow=classic;html=1;rounded=0;" edge="1" parent="1">
          <mxGeometry width="50" height="50" relative="1" as="geometry">
            <mxPoint x="-170" y="161" as="sourcePoint" />
            <mxPoint x="80" y="251" as="targetPoint" />
            <Array as="points">
              <mxPoint x="-122" y="263" />
            </Array>
          </mxGeometry>
        </mxCell>
        <mxCell id="caIsfQz5mnpSXyzE1Mm8-28" value="&lt;b&gt;&lt;font style=&quot;font-size: 14px;&quot;&gt;PartitionTransformation&lt;/font&gt;&lt;/b&gt;" style="text;html=1;align=center;verticalAlign=middle;resizable=0;points=[];autosize=1;strokeColor=none;fillColor=none;" vertex="1" parent="1">
          <mxGeometry x="-208" y="38" width="180" height="30" as="geometry" />
        </mxCell>
      </root>
    </mxGraphModel>
  </diagram>
</mxfile>
